<?xml version="1.0" standalone="no"?><!DOCTYPE svg PUBLIC "-//W3C//DTD SVG 1.1//EN" "http://www.w3.org/Graphics/SVG/1.1/DTD/svg11.dtd"><svg t="1688018003412" class="icon" viewBox="0 0 1024 1024" version="1.1" xmlns="http://www.w3.org/2000/svg" p-id="4280" xmlns:xlink="http://www.w3.org/1999/xlink" width="200" height="200">
<path d="M160.3 127.6h704c17.7 0 32 14.3 32 32v704c0 17.7-14.3 32-32 32h-704c-17.7 0-32-14.3-32-32v-704c0-17.6 14.3-32 32-32z" fill="#FCA128" p-id="4281"></path><path d="M513.1 254.5c-141.2 0-255.6 114.5-255.6 255.6 0 141.2 114.4 255.6 255.6 255.6s255.6-114.4 255.6-255.6-114.4-255.6-255.6-255.6zM608.9 558H497.1c-17.6 0-32-14.3-32-32V382.3c0-17.7 14.3-32 32-32 17.6 0 32 14.3 32 32v111.8H609c17.6 0 32 14.3 32 32-0.1 17.6-14.4 31.9-32.1 31.9z" fill="#FFFFFF" p-id="4282"></path></svg>